Coordinates
version=1
nRows=16
nColumns=36
inDegrees=yes

Units are S.I. units (second, meters, Newtons, ...)
If the header above contains a line with 'inDegrees', this indicates whether rotational values are in degrees (yes) or radians (no).

endheader
time	pelvis_tilt	pelvis_list	pelvis_rotation	pelvis_tx	pelvis_ty	pelvis_tz	hip_flexion_r	hip_adduction_r	hip_rotation_r	knee_angle_r	knee_angle_r_beta	ankle_angle_r	subtalar_angle_r	mtp_angle_r	hip_flexion_l	hip_adduction_l	hip_rotation_l	knee_angle_l	knee_angle_l_beta	ankle_angle_l	subtalar_angle_l	mtp_angle_l	lumbar_extension	lumbar_bending	lumbar_rotation	arm_flex_r	arm_add_r	arm_rot_r	elbow_flex_r	pro_sup_r	arm_flex_l	arm_add_l	arm_rot_l	elbow_flex_l	pro_sup_l
      6.91666670	     -3.11342592	     -3.56496048	     -1.69124575	      0.74426090	      0.88809220	      0.18770045	     13.08905168	      0.65603396	      2.98739040	      6.65199523	      0.11609922	      0.85835486	     -7.82990529	     -7.49999987	      1.72324965	      2.15810606	      1.72746115	      0.57777432	      0.01008406	      5.45020959	     -7.87358168	     -7.49999987	      5.74618899	      0.94519297	      5.15633126	     40.05086226	      9.15693529	     64.14191552	    127.12829243	     90.38206724	     35.10556527	      8.56581469	     69.29776132	    122.28799324	     78.93447587
      6.93333330	     -3.09156922	     -3.43532067	     -1.81718456	      0.74437082	      0.88872784	      0.18765440	     13.13870258	      0.54586075	      3.06041158	      6.86039460	      0.11973647	      1.06559263	     -8.12771463	     -7.49999987	      1.66390333	      2.31585473	      1.61526599	      0.55081369	      0.00961351	      5.53494500	     -8.10578421	     -7.49999987	      5.75566067	      0.80333518	      5.33767088	     39.76847931	      9.24436167	     64.16285266	    127.12866074	     94.90323394	     35.03015489	      8.79103689	     69.45276830	    122.50056036	     81.20726551
      6.95000000	     -3.03898360	     -3.33184932	     -1.82879388	      0.74387108	      0.89300809	      0.18816353	     13.05660402	      0.45764386	      3.03501741	      6.82477277	      0.11911476	      1.08408796	     -8.06497374	     -7.49999987	      1.59129582	      2.41809110	      1.44083704	      0.53389182	      0.00931817	      5.50081497	     -8.02153530	     -7.49999987	      5.65166822	      0.68720508	      5.43243615	     39.51811499	      9.19152277	     64.45678670	    126.98939318	     94.13644661	     34.79179623	      8.66238750	     69.62542919	    122.55415243	     80.85900952
      6.96666670	     -3.00733616	     -3.25674322	     -1.84334040	      0.74441077	      0.88882824	      0.18803332	     13.00843348	      0.38396412	      3.07756230	      6.80353103	      0.11874402	      1.05289400	     -8.26874872	     -7.49999987	      1.59577718	      2.52975056	      1.33748409	      0.53588767	      0.00935300	      5.47101203	     -8.21127635	     -7.49999987	      5.65129269	      0.59680705	      5.45255660	     39.35563524	      9.22816876	     64.51486026	    126.92046980	     94.88822439	     34.73481638	      8.62761312	     69.60889778	    122.53952072	     81.45755013
      6.98333330	     -3.02620824	     -3.16983613	     -1.85845829	      0.74007296	      0.88751436	      0.18589493	     13.14128209	      0.25781970	      3.06266733	      6.84967630	      0.11954940	      1.06379868	     -8.28038635	     -7.49999987	      1.71793232	      2.66849652	      1.26886591	      0.53793485	      0.00938873	      5.44777062	     -8.25409450	     -7.49999987	      5.60821240	      0.55641543	      5.41028712	     39.54681272	      9.11823993	     64.47017295	    126.90841350	     94.88599354	     34.93978206	      8.63358101	     69.46542911	    122.46121102	     81.45834900
      7.00000000	     -3.01675283	     -3.17463073	     -1.85533870	      0.74421059	      0.88900716	      0.18800092	     13.13956571	      0.26934947	      3.06017121	      6.84992888	      0.11955381	      1.06488943	     -8.28057708	     -7.49999987	      1.72377258	      2.68072586	      1.26841779	      0.57110894	      0.00996773	      5.44686626	     -8.25456588	     -7.49999987	      5.60397535	      0.55839209	      5.40917339	     39.54741576	      9.11648294	     64.46935191	    126.90831477	     94.88586876	     34.94138610	      8.63201695	     69.46332452	    122.45848327	     81.45823083
      7.01666670	     -3.03053862	     -3.18930468	     -1.92329415	      0.74502299	      0.88630750	      0.18858430	     13.07681759	      0.29937521	      3.01690290	      6.74760850	      0.11776798	      1.17221470	     -8.29584020	     -7.49999987	      1.67014839	      2.67679389	      1.21266696	      0.50712413	      0.00885099	      5.47356937	     -8.29444344	     -7.49999987	      5.71786134	      0.48564367	      5.47188749	     39.56467490	      9.15482034	     64.45544160	    126.92820729	     94.88485936	     34.87017046	      8.59778326	     69.46044834	    122.50634576	     81.46051825
      7.03333330	     -3.04257909	     -3.16002210	     -2.03270843	      0.74376067	      0.88657769	      0.18284207	     13.09335454	      0.16335279	      3.03301585	      6.72740457	      0.11741536	      1.18827365	     -8.28122900	     -7.49999987	      1.64247336	      2.78384802	      1.20742338	      0.49361631	      0.00861523	      5.50960856	     -8.30273678	     -7.49999987	      5.74463249	      0.67661623	      5.37614489	     39.54395889	      9.11463193	     64.44807345	    126.99083908	     94.88503005	     34.87436067	      8.65346430	     69.44556464	    122.49648246	     81.45958917
      7.05000000	     -3.06030897	     -3.36063666	     -2.08154563	      0.74817589	      0.88665676	      0.18528686	     12.96735266	      0.30882414	      3.11141556	      6.51194826	      0.11365494	      1.13708951	     -8.03958739	     -7.49999987	      1.50714685	      2.62450572	      1.22604327	      0.43023520	      0.00750902	      5.92034111	     -8.38803281	     -7.49999987	      5.93337208	      0.94449036	      5.22516931	     39.40848635	      9.07833353	     64.47389200	    127.37269136	     94.88546802	     34.53607082	      8.76070457	     69.25357131	    122.47165866	     81.45019360
      7.06666670	     -3.11241675	     -3.48594405	     -2.13007272	      0.74406731	      0.88452447	      0.18810821	     13.01827748	      0.42653576	      3.07990313	      6.37044904	      0.11118531	      1.10711489	     -7.91846364	     -7.49999987	      1.52442772	      2.51384498	      1.27180462	      0.40165244	      0.00701016	      6.24575160	     -8.40819659	     -7.49999987	      6.06269036	      1.08475982	      5.20441068	     39.51507530	      9.15186594	     64.46129009	    127.58910590	     94.88513807	     34.62590330	      8.74484792	     69.07235950	    122.41355984	     81.44415269
      7.08333330	     -3.07768097	     -3.59171258	     -2.23976529	      0.74345645	      0.89112722	      0.18847094	     13.00142785	      0.56349977	      3.02297269	      6.26244279	      0.10930025	      1.04876216	     -7.41418849	     -7.49999987	      1.46544989	      2.37908114	      1.02052027	      0.39196526	      0.00684108	      6.51759206	     -7.87987219	     -7.49999987	      6.01829709	      1.15719985	      5.22227372	     39.46114432	      9.03224453	     64.74299847	    127.79519778	     92.54462205	     34.37879432	      8.62313293	     69.04275090	    122.50678780	     80.12657722
      7.10000000	     -2.97591375	     -3.71970634	     -2.29610733	      0.74785925	      0.88767236	      0.18506805	     12.80408677	      0.67692285	      3.04259398	      6.14444166	      0.10724074	      1.00833175	     -7.21830540	     -7.49999987	      1.30089039	      2.27077071	      1.00637635	      0.39172563	      0.00683690	      6.68767926	     -7.97765008	     -7.49999987	      5.98480685	      1.36968667	      5.12723601	     39.19040222	      9.13003981	     64.99172653	    127.96195506	     91.11653141	     34.11626945	      8.65265591	     69.16906241	    122.60746618	     79.31268132
      7.11666670	     -2.95031925	     -3.77733231	     -2.40857436	      0.74436261	      0.88413576	      0.18814535	     12.79141353	      0.79066792	      3.20953559	      6.08960031	      0.10628358	      0.92549519	     -7.31688319	     -7.49999987	      1.27071718	      2.17960857	      0.95878789	      0.40627899	      0.00709091	      6.90272184	     -7.96294123	     -7.49999987	      5.99964711	      1.40686867	      5.20808378	     39.24641086	      9.27992272	     64.73015620	    127.89283463	     90.39035080	     34.25281473	      8.62420153	     69.19815979	    122.79377921	     78.86302256
      7.13333330	     -3.02295378	     -3.80232994	     -2.49804115	      0.74750191	      0.88983724	      0.18489797	     12.91286795	      0.81357774	      3.37993662	      6.25500564	      0.10917044	      0.76294893	     -7.62727882	     -7.49999987	      1.29815727	      2.17149486	      1.02831577	      0.39892250	      0.00696251	      6.82252506	     -8.09678520	     -7.49999987	      6.10212768	      1.46872702	      5.14052887	     38.86959655	      9.36019629	     64.63692591	    127.70360131	     94.33367469	     33.70779991	      8.65312754	     69.22817277	    122.70568685	     80.66555846
      7.15000000	     -3.07785740	     -3.76510147	     -2.64330558	      0.74008412	      0.88343196	      0.18584556	     13.19706123	      0.80813776	      3.52121286	      6.57060562	      0.11467870	      0.94881643	     -7.89576190	     -7.49999987	      1.44267029	      2.24916453	      1.07790119	      0.41977993	      0.00732654	      6.98490285	     -8.30724024	     -7.49999987	      5.98121583	      1.40511387	      5.22227641	     39.37987757	      9.51018647	     64.59460417	    127.69342280	     93.17724850	     33.97028720	      8.68549268	     69.28275904	    122.98666604	     80.07176041
      7.16666670	     -2.98310410	     -3.73808462	     -2.63012592	      0.74300842	      0.88900853	      0.18219270	     13.24292660	      0.70401792	      3.35178671	      6.90232709	      0.12046833	      1.03575320	     -7.73211573	     -7.49999987	      1.40859825	      2.34164042	      1.06825454	      0.43341386	      0.00756450	      6.87522866	     -8.14062488	     -7.49999987	      5.76269211	      1.39309035	      5.11748567	     39.53402517	      9.51390970	     64.84511999	    127.67184192	     91.56325299	     33.75175585	      8.64417803	     69.47048048	    123.13231879	     79.20114156
